<svg id="SvgjsSvg1006" width="1129.9658813476562" height="682.7144775390625" xmlns="http://www.w3.org/2000/svg" version="1.1" xmlns:xlink="http://www.w3.org/1999/xlink" xmlns:svgjs="http://svgjs.com/svgjs"><defs id="SvgjsDefs1007"><marker id="SvgjsMarker1042" markerWidth="16" markerHeight="12" refX="11" refY="6" viewBox="0 0 16 12" orient="auto" markerUnits="userSpaceOnUse" stroke-dasharray="0,0"><path id="SvgjsPath1043" d="M0,0 L16,6 L0,12 L0,0" fill="#323232" stroke="#323232" stroke-width="1"></path></marker><marker id="SvgjsMarker1052" markerWidth="14" markerHeight="10" refX="10" refY="5" viewBox="0 0 14 10" orient="auto" markerUnits="userSpaceOnUse" stroke-dasharray="0,0"><path id="SvgjsPath1053" d="M0,0 L14,5 L0,10 L0,0" fill="#323232" stroke="#323232" stroke-width="1"></path></marker><marker id="SvgjsMarker1096" markerWidth="16" markerHeight="12" refX="11" refY="6" viewBox="0 0 16 12" orient="auto" markerUnits="userSpaceOnUse" stroke-dasharray="0,0"><path id="SvgjsPath1097" d="M0,0 L16,6 L0,12 L0,0" fill="#323232" stroke="#323232" stroke-width="1"></path></marker><marker id="SvgjsMarker1100" markerWidth="16" markerHeight="12" refX="11" refY="6" viewBox="0 0 16 12" orient="auto" markerUnits="userSpaceOnUse" stroke-dasharray="0,0"><path id="SvgjsPath1101" d="M0,0 L16,6 L0,12 L0,0" fill="#323232" stroke="#323232" stroke-width="1"></path></marker><marker id="SvgjsMarker1104" markerWidth="16" markerHeight="16" refX="11" refY="8" viewBox="0 0 16 16" orient="auto" markerUnits="userSpaceOnUse" stroke-dasharray="0,0"><path id="SvgjsPath1105" d="M0,0 L10,8 L0,16" fill="none" stroke="#323232" stroke-width="2"></path></marker><marker id="SvgjsMarker1110" markerWidth="16" markerHeight="12" refX="5" refY="6" viewBox="0 0 16 12" orient="auto" markerUnits="userSpaceOnUse" stroke-dasharray="0,0"><path id="SvgjsPath1111" d="M16,0 L0,6 L16,12 L16,0" fill="#323232" stroke="#323232" stroke-width="1"></path></marker><marker id="SvgjsMarker1112" markerWidth="16" markerHeight="12" refX="11" refY="6" viewBox="0 0 16 12" orient="auto" markerUnits="userSpaceOnUse" stroke-dasharray="0,0"><path id="SvgjsPath1113" d="M0,0 L16,6 L0,12 L0,0" fill="#323232" stroke="#323232" stroke-width="1"></path></marker><marker id="SvgjsMarker1116" markerWidth="16" markerHeight="20" refX="0" refY="10" viewBox="0 0 16 20" orient="auto" markerUnits="userSpaceOnUse" stroke-dasharray="0,0"><path id="SvgjsPath1117" d="M15,1 L1,10 L15,19" fill="none" stroke="#323232" stroke-width="2"></path></marker><marker id="SvgjsMarker1118" markerWidth="16" markerHeight="16" refX="11" refY="8" viewBox="0 0 16 16" orient="auto" markerUnits="userSpaceOnUse" stroke-dasharray="0,0"><path id="SvgjsPath1119" d="M0,0 L10,8 L0,16" fill="none" stroke="#323232" stroke-width="2"></path></marker><marker id="SvgjsMarker1146" markerWidth="14" markerHeight="10" refX="10" refY="5" viewBox="0 0 14 10" orient="auto" markerUnits="userSpaceOnUse" stroke-dasharray="0,0"><path id="SvgjsPath1147" d="M0,0 L14,5 L0,10 L0,0" fill="#323232" stroke="#323232" stroke-width="1"></path></marker><marker id="SvgjsMarker1174" markerWidth="14" markerHeight="10" refX="4" refY="5" viewBox="0 0 14 10" orient="auto" markerUnits="userSpaceOnUse" stroke-dasharray="0,0"><path id="SvgjsPath1175" d="M14,0 L0,5 L14,10 L14,0" fill="#323232" stroke="#323232" stroke-width="1"></path></marker><marker id="SvgjsMarker1176" markerWidth="14" markerHeight="10" refX="10" refY="5" viewBox="0 0 14 10" orient="auto" markerUnits="userSpaceOnUse" stroke-dasharray="0,0"><path id="SvgjsPath1177" d="M0,0 L14,5 L0,10 L0,0" fill="#323232" stroke="#323232" stroke-width="1"></path></marker><marker id="SvgjsMarker1194" markerWidth="14" markerHeight="10" refX="4" refY="5" viewBox="0 0 14 10" orient="auto" markerUnits="userSpaceOnUse" stroke-dasharray="0,0"><path id="SvgjsPath1195" d="M14,0 L0,5 L14,10 L14,0" fill="#323232" stroke="#323232" stroke-width="1"></path></marker><marker id="SvgjsMarker1196" markerWidth="14" markerHeight="10" refX="10" refY="5" viewBox="0 0 14 10" orient="auto" markerUnits="userSpaceOnUse" stroke-dasharray="0,0"><path id="SvgjsPath1197" d="M0,0 L14,5 L0,10 L0,0" fill="#323232" stroke="#323232" stroke-width="1"></path></marker></defs><g id="SvgjsG1008" transform="translate(656.1918545314245,193.90138871329174)"><path id="SvgjsPath1009" d="M 0 4Q 0 0 4 0L 102.18182373046875 0Q 106.18182373046875 0 106.18182373046875 4L 106.18182373046875 48Q 106.18182373046875 52 102.18182373046875 52L 4 52Q 0 52 0 48Z" stroke="none" fill-opacity="1" fill="#2196f3"></path><g id="SvgjsG1010"><text id="SvgjsText1011" font-family="Verdana" text-anchor="middle" font-size="13px" width="87px" fill="#ffffff" font-weight="400" align="middle" lineHeight="125%" anchor="middle" family="Verdana" size="13px" weight="400" font-style="" opacity="1" y="6.875" transform="rotate(0)"><tspan id="SvgjsTspan1012" dy="16" x="53.5"><tspan id="SvgjsTspan1013" style="text-decoration:;">snapshotter</tspan></tspan><tspan id="SvgjsTspan1014" dy="16" x="53.5"><tspan id="SvgjsTspan1015" style="text-decoration:;">plugin</tspan></tspan></text></g></g><g id="SvgjsG1016" transform="translate(487.6918392726351,304.0304540906634)"><path id="SvgjsPath1017" d="M 0 4Q 0 0 4 0L 130 0Q 134 0 134 4L 134 51Q 134 55 130 55L 4 55Q 0 55 0 51Z" stroke="rgba(255,255,255,1)" stroke-width="4" fill-opacity="1" fill="#1976d2"></path><g id="SvgjsG1018"><text id="SvgjsText1019" font-family="Verdana" text-anchor="middle" font-size="16px" width="114px" fill="#ffcdd2" font-weight="700" align="middle" lineHeight="125%" anchor="middle" family="Verdana" size="16px" weight="700" font-style="" opacity="1" y="13.5" transform="rotate(0)"><tspan id="SvgjsTspan1020" dy="20" x="67"><tspan id="SvgjsTspan1021" style="text-decoration:;">nydusd</tspan></tspan></text></g></g><g id="SvgjsG1022" transform="translate(866.147009931292,190.71388871329185)"><path id="SvgjsPath1023" d="M 0 4Q 0 0 4 0L 117.27273559570312 0Q 121.27273559570312 0 121.27273559570312 4L 121.27273559570312 55.81818389892578Q 121.27273559570312 59.81818389892578 117.27273559570312 59.81818389892578L 4 59.81818389892578Q 0 59.81818389892578 0 55.81818389892578Z" stroke="none" fill-opacity="1" fill="#81c784"></path><g id="SvgjsG1024"><text id="SvgjsText1025" font-family="Verdana" text-anchor="middle" font-size="14px" width="102px" fill="#7b1fa2" font-weight="700" align="middle" lineHeight="125%" anchor="middle" family="Verdana" size="14px" weight="700" font-style="" opacity="1" y="18.15909194946289" transform="rotate(0)"><tspan id="SvgjsTspan1026" dy="17" x="61"><tspan id="SvgjsTspan1027" style="text-decoration:;">containerd</tspan></tspan></text></g></g><g id="SvgjsG1028" transform="translate(162.60095792497913,298.31616837637773)"><path id="SvgjsPath1029" d="M 0 0L 115 0L 115 42.227272033691406L 0 42.227272033691406Z" stroke="rgba(50,50,50,1)" stroke-width="2" fill-opacity="1" fill="#ffffff"></path><g id="SvgjsG1030"><text id="SvgjsText1031" font-family="Verdana" text-anchor="middle" font-size="15px" width="95px" fill="#323232" font-weight="400" align="middle" lineHeight="125%" anchor="middle" family="Verdana" size="15px" weight="400" font-style="italic" opacity="1" y="8.738636016845703" transform="rotate(0)"><tspan id="SvgjsTspan1032" dy="18" x="57.5"><tspan id="SvgjsTspan1033" style="text-decoration:;">container</tspan></tspan></text></g></g><g id="SvgjsG1034" transform="translate(398.70484848022465,505.86162430899503)"><path id="SvgjsPath1035" d="M 0 4Q 0 0 4 0L 131 0Q 135 0 135 4L 135 45Q 135 49 131 49L 4 49Q 0 49 0 45Z" stroke="rgba(50,50,50,1)" stroke-width="2" fill-opacity="1" fill="#ffffff"></path><g id="SvgjsG1036"><text id="SvgjsText1037" font-family="Verdana" text-anchor="middle" font-size="13px" width="115px" fill="#323232" font-weight="700" align="middle" lineHeight="125%" anchor="middle" family="Verdana" size="13px" weight="700" font-style="" opacity="1" y="13.875" transform="rotate(0)"><tspan id="SvgjsTspan1038" dy="16" x="67.5"><tspan id="SvgjsTspan1039" style="text-decoration:;">erofs</tspan></tspan></text></g></g><g id="SvgjsG1040"><path id="SvgjsPath1041" d="M650.5859301887128 88.70362210910548C 618.567523664836 176.74814738440176 554.6918392726351 209.3450496203099 554.8949387774328 298.1339508394856" stroke="#323232" stroke-width="3" fill="none" marker-end="url(#SvgjsMarker1042)"></path></g><g id="SvgjsG1044" transform="translate(621.6918392726352,28.659337016513916)"><path id="SvgjsPath1045" d="M 18.48 45.97727127075195C -15.4 32.84090805053711 6.16 22.988635635375974 13.86 19.704544830322266C 10.780000000000001 3.284090805053711 49.28 0 64.67999999999999 6.568181610107422C 77 -3.284090805053711 115.5 0 115.5 9.852272415161133C 146.29999999999998 6.568181610107422 158.62 19.704544830322266 146.29999999999998 36.124998855590825C 157.08 49.261362075805664 146.29999999999998 65.68181610107422 110.88 59.113634490966795C 103.18 67.65227058410645 72.38 67.65227058410645 64.67999999999999 59.113634490966795C 49.28 65.68181610107422 18.48 62.3977252960205 18.48 45.97727127075195Z" stroke="rgba(50,50,50,1)" stroke-width="2" fill-opacity="1" fill="#ffffff"></path><g id="SvgjsG1046"><text id="SvgjsText1047" font-family="Verdana" text-anchor="middle" font-size="13px" width="134px" fill="#323232" font-weight="400" align="middle" lineHeight="125%" anchor="middle" family="Verdana" size="13px" weight="400" font-style="" opacity="1" y="22.21590805053711" transform="rotate(0)"><tspan id="SvgjsTspan1048" dy="16" x="77"><tspan id="SvgjsTspan1049" style="text-decoration:;">Registry</tspan></tspan></text></g></g><g id="SvgjsG1050"><path id="SvgjsPath1051" d="M709.6785318264688 95.31955906002281C 717.7593933010588 189.06832912443167 926.7833777291432 95.62487028316303 926.4766751000168 188.13204179736385" stroke="#323232" stroke-width="2" fill="none" marker-end="url(#SvgjsMarker1052)"></path></g><g id="SvgjsG1054" transform="translate(866.7833777291444,264.0304540906635)"><path id="SvgjsPath1055" d="M 0 0L 120 0L 120 40L 0 40Z" stroke="none" fill="none"></path><g id="SvgjsG1056"><text id="SvgjsText1057" font-family="Verdana" text-anchor="middle" font-size="13px" width="120px" fill="#323232" font-weight="400" align="middle" lineHeight="125%" anchor="middle" family="Verdana" size="13px" weight="400" font-style="" opacity="1" y="0.875" transform="rotate(0)"><tspan id="SvgjsTspan1058" dy="16" x="60"><tspan id="SvgjsTspan1059" style="text-decoration:;">Pull </tspan></tspan><tspan id="SvgjsTspan1060" dy="16" x="60"><tspan id="SvgjsTspan1061" style="text-decoration:;">Bootstrap/Meta</tspan></tspan></text></g></g><g id="SvgjsG1062" transform="translate(474.51475045340396,37.032072612217576)"><path id="SvgjsPath1063" d="M 0 0L 120 0L 120 40L 0 40Z" stroke="none" fill="none"></path><g id="SvgjsG1064"><text id="SvgjsText1065" font-family="Verdana" text-anchor="middle" font-size="13px" width="120px" fill="#323232" font-weight="400" align="middle" lineHeight="125%" anchor="middle" family="Verdana" size="13px" weight="400" font-style="" opacity="1" y="9.375" transform="rotate(0)"><tspan id="SvgjsTspan1066" dy="16" x="60"><tspan id="SvgjsTspan1067" style="text-decoration:;">Layer Data</tspan></tspan></text></g></g><g id="SvgjsG1068" transform="translate(296.1009579249789,476.4707200731551)"><path id="SvgjsPath1069" d="M 0 4Q 0 0 4 0L 118 0Q 122 0 122 4L 122 45Q 122 49 118 49L 4 49Q 0 49 0 45Z" stroke="rgba(50,50,50,1)" stroke-width="2" fill-opacity="1" fill="#ffffff"></path><g id="SvgjsG1070"><text id="SvgjsText1071" font-family="Verdana" text-anchor="middle" font-size="13px" width="102px" fill="#323232" font-weight="400" align="middle" lineHeight="125%" anchor="middle" family="Verdana" size="13px" weight="400" font-style="" opacity="1" y="5.375" transform="rotate(0)"><tspan id="SvgjsTspan1072" dy="16" x="61"><tspan id="SvgjsTspan1073" style="text-decoration:;">overlayfs </tspan></tspan><tspan id="SvgjsTspan1074" dy="16" x="61"><tspan id="SvgjsTspan1075" style="text-decoration:;">stacked</tspan></tspan></text></g></g><g id="SvgjsG1076" transform="translate(42.60095792497913,396.27071244376054)"><path id="SvgjsPath1077" d="M 0 0L 159.62500762939453 0L 159.62500762939453 33.272735595703125L 0 33.272735595703125Z" stroke="none" fill="none"></path><g id="SvgjsG1078"><text id="SvgjsText1079" font-family="Verdana" text-anchor="middle" font-size="12px" width="160px" fill="#323232" font-weight="400" align="middle" lineHeight="125%" anchor="middle" family="Verdana" size="12px" weight="400" font-style="" opacity="1" y="6.6363677978515625" transform="rotate(0)"><tspan id="SvgjsTspan1080" dy="15" x="80"><tspan id="SvgjsTspan1081" style="text-decoration:;">Posix File Interfaces</tspan></tspan></text></g></g><g id="SvgjsG1082" transform="translate(325.14639859880725,298.31616837637773)"><path id="SvgjsPath1083" d="M 0 0L 115 0L 115 42.227272033691406L 0 42.227272033691406Z" stroke="rgba(50,50,50,1)" stroke-width="2" fill-opacity="1" fill="#ffffff"></path><g id="SvgjsG1084"><text id="SvgjsText1085" font-family="Verdana" text-anchor="middle" font-size="15px" width="95px" fill="#323232" font-weight="400" align="middle" lineHeight="125%" anchor="middle" family="Verdana" size="15px" weight="400" font-style="italic" opacity="1" y="8.738636016845703" transform="rotate(0)"><tspan id="SvgjsTspan1086" dy="18" x="57.5"><tspan id="SvgjsTspan1087" style="text-decoration:;">container</tspan></tspan></text></g></g><g id="SvgjsG1088" transform="translate(25.000957924979048,436.4707200731551)"><path id="SvgjsPath1089" d="M 0 0L 120 0L 120 40L 0 40Z" stroke="none" fill="none"></path><g id="SvgjsG1090"><text id="SvgjsText1091" font-family="Verdana" text-anchor="middle" font-size="13px" width="120px" fill="#323232" font-weight="400" align="middle" lineHeight="125%" anchor="middle" family="Verdana" size="13px" weight="400" font-style="" opacity="1" y="9.375" transform="rotate(0)"><tspan id="SvgjsTspan1092" dy="16" x="60"><tspan id="SvgjsTspan1093" style="text-decoration:;">Kernel</tspan></tspan></text></g></g><g id="SvgjsG1094"><path id="SvgjsPath1095" d="M295.1030976160903 595.184236272933C 189.77975625095905 595.2496182577954 220.10095792497913 446.86464208408904 220.04404923751332 345.4431099296685" stroke="#323232" stroke-width="3" fill="none" marker-end="url(#SvgjsMarker1096)"></path></g><g id="SvgjsG1098"><path id="SvgjsPath1099" d="M357.1404264369205 475.47149925843746C 357.1009579249789 421.14796541169324 382.64639859880725 395.866195071531 382.45300289029325 345.43962240218593" stroke="#323232" stroke-width="3" fill="none" marker-end="url(#SvgjsMarker1100)"></path></g><g id="SvgjsG1102"><path id="SvgjsPath1103" d="M709.2827663966589 245.90138871329174L595.8199159414804 303.65815211404174" stroke-dasharray="3,3" stroke="#323232" stroke-width="2" fill="none" marker-end="url(#SvgjsMarker1104)"></path></g><g id="SvgjsG1106"><path id="SvgjsPath1107" d="M37.308340127127565 435.41275651114336L541.8083401271276 435.41275651114336L541.8083401271276 435.41275651114336L1046.3083401271276 435.41275651114336" stroke="#323232" stroke-width="2" fill="none"></path></g><g id="SvgjsG1108"><path id="SvgjsPath1109" d="M555.6257298625457 364.8560740890907C 554.6918392726351 413.61524207763 649.8282223292761 402.27683632202843 649.0526182800284 452.02339753064007" stroke="#323232" stroke-width="3" fill="none" marker-start="url(#SvgjsMarker1110)" marker-end="url(#SvgjsMarker1112)"></path></g><g id="SvgjsG1114"><path id="SvgjsPath1115" d="M763.3736540869149 219.90834208458068L865.1470341062703 220.61602729146574" stroke-dasharray="3,3" stroke="#323232" stroke-width="2" fill="none" marker-start="url(#SvgjsMarker1116)" marker-end="url(#SvgjsMarker1118)"></path></g><g id="SvgjsG1120" transform="translate(748.8797686985564,143.53207261221786)"><path id="SvgjsPath1121" d="M 0 0L 120 0L 120 40L 0 40Z" stroke="none" fill="none"></path><g id="SvgjsG1122"><text id="SvgjsText1123" font-family="微软雅黑" text-anchor="middle" font-size="13px" width="120px" fill="#323232" font-weight="400" align="middle" lineHeight="125%" anchor="middle" family="微软雅黑" size="13px" weight="400" font-style="" opacity="1" y="9.375" transform="rotate(0)"><tspan id="SvgjsTspan1124" dy="16" x="60"><tspan id="SvgjsTspan1125" style="text-decoration:;">Annotations</tspan></tspan></text></g></g><g id="SvgjsG1126" transform="translate(748.8797686985565,169.9013887132918)"><path id="SvgjsPath1127" d="M 0 0L 120 0L 120 40L 0 40Z" stroke="none" fill="none"></path><g id="SvgjsG1128"><text id="SvgjsText1129" font-family="微软雅黑" text-anchor="middle" font-size="13px" width="120px" fill="#323232" font-weight="400" align="middle" lineHeight="125%" anchor="middle" family="微软雅黑" size="13px" weight="400" font-style="" opacity="1" y="9.375" transform="rotate(0)"><tspan id="SvgjsTspan1130" dy="16" x="60"><tspan id="SvgjsTspan1131" style="text-decoration:;">Mount Slice</tspan></tspan></text></g></g><g id="SvgjsG1132" transform="translate(748.8797686985566,234.6684404100696)"><path id="SvgjsPath1133" d="M 0 0L 120 0L 120 40L 0 40Z" stroke="none" fill="none"></path><g id="SvgjsG1134"><text id="SvgjsText1135" font-family="微软雅黑" text-anchor="middle" font-size="13px" width="120px" fill="#323232" font-weight="400" align="middle" lineHeight="125%" anchor="middle" family="微软雅黑" size="13px" weight="400" font-style="" opacity="1" y="9.375" transform="rotate(0)"><tspan id="SvgjsTspan1136" dy="16" x="60"><tspan id="SvgjsTspan1137" style="text-decoration:;">Snapshot IDs</tspan></tspan></text></g></g><g id="SvgjsG1138" transform="translate(233.1463985988072,25.00024506705097)"><path id="SvgjsPath1139" d="M 24.84 51.099999999999994C -20.700000000000003 36.5 8.28 25.549999999999997 18.63 21.9C 14.490000000000002 3.6500000000000004 66.24 0 86.94 7.300000000000001C 103.5 -3.6500000000000004 155.25 0 155.25 10.95C 196.64999999999998 7.300000000000001 213.21 21.9 196.64999999999998 40.150000000000006C 211.14000000000001 54.75 196.64999999999998 73 149.04 65.7C 138.69 75.19 97.28999999999999 75.19 86.94 65.7C 66.24 73 24.84 69.35 24.84 51.099999999999994Z" stroke="rgba(50,50,50,1)" stroke-width="2" fill-opacity="1" fill="#ffffff"></path><g id="SvgjsG1140"><text id="SvgjsText1141" font-family="Verdana" text-anchor="middle" font-size="13px" width="187px" fill="#323232" font-weight="400" align="middle" lineHeight="125%" anchor="middle" family="Verdana" size="13px" weight="400" font-style="" opacity="1" y="25.875" transform="rotate(0)"><tspan id="SvgjsTspan1142" dy="16" x="103.5"><tspan id="SvgjsTspan1143" style="text-decoration:;">P2P cluster/ Dragonfly</tspan></tspan></text></g></g><g id="SvgjsG1144"><path id="SvgjsPath1145" d="M351.27462201102105 98.99064614152331C 361.2334289416029 213.40982998777326 504.86102730887285 221.25205230712896 552.126924739201 300.2119185813119" stroke="#323232" stroke-width="2" fill="none" marker-end="url(#SvgjsMarker1146)"></path></g><g id="SvgjsG1148" transform="translate(543.5100460597453,209.90138871329185)"><path id="SvgjsPath1149" d="M 0 0L 75.15226593017587 0L 75.15226593017587 20L 0 20Z" stroke="none" fill="none"></path><g id="SvgjsG1150"><text id="SvgjsText1151" font-family="微软雅黑" text-anchor="middle" font-size="13px" width="76px" fill="#323232" font-weight="400" align="middle" lineHeight="125%" anchor="middle" family="微软雅黑" size="13px" weight="400" font-style="" opacity="1" y="-0.625" transform="rotate(0)"><tspan id="SvgjsTspan1152" dy="16" x="38"><tspan id="SvgjsTspan1153" style="text-decoration:;">auth</tspan></tspan></text></g></g><g id="SvgjsG1154" transform="translate(995.9727010454458,205.62296921866283)"><path id="SvgjsPath1155" d="M 0 22.454551696777344L 22.454551696777344 0L 22.454551696777344 14.820004119873047L 109 14.820004119873047L 109 30.089099273681644L 22.454551696777344 30.089099273681644L 22.454551696777344 44.90910339355469L 0 22.454551696777344Z" stroke="rgba(50,50,50,1)" stroke-width="2" fill-opacity="1" fill="#ffffff"></path><g id="SvgjsG1156"><text id="SvgjsText1157" font-family="微软雅黑" text-anchor="middle" font-size="13px" width="109px" fill="#323232" font-weight="700" align="middle" lineHeight="125%" anchor="middle" family="微软雅黑" size="13px" weight="700" font-style="" opacity="1" y="11.829551696777344" transform="rotate(0)"><tspan id="SvgjsTspan1158" dy="16" x="54.5"><tspan id="SvgjsTspan1159" style="text-decoration:;">CRI</tspan></tspan></text></g></g><g id="SvgjsG1160" transform="translate(582.3282223292761,456.86162430899503)"><path id="SvgjsPath1161" d="M 0 4Q 0 0 4 0L 131 0Q 135 0 135 4L 135 45Q 135 49 131 49L 4 49Q 0 49 0 45Z" stroke="rgba(50,50,50,1)" stroke-width="2" fill-opacity="1" fill="#ffffff"></path><g id="SvgjsG1162"><text id="SvgjsText1163" font-family="Verdana" text-anchor="middle" font-size="13px" width="115px" fill="#323232" font-weight="400" align="middle" lineHeight="125%" anchor="middle" family="Verdana" size="13px" weight="400" font-style="" opacity="1" y="13.875" transform="rotate(0)"><tspan id="SvgjsTspan1164" dy="16" x="67.5"><tspan id="SvgjsTspan1165" style="text-decoration:;">cachefiles</tspan></tspan></text></g></g><g id="SvgjsG1166" transform="translate(582.3282223292761,505.8616243089949)"><path id="SvgjsPath1167" d="M 0 4Q 0 0 4 0L 131 0Q 135 0 135 4L 135 45Q 135 49 131 49L 4 49Q 0 49 0 45Z" stroke="rgba(50,50,50,1)" stroke-width="2" fill-opacity="1" fill="#ffffff"></path><g id="SvgjsG1168"><text id="SvgjsText1169" font-family="Verdana" text-anchor="middle" font-size="13px" width="115px" fill="#323232" font-weight="400" align="middle" lineHeight="125%" anchor="middle" family="Verdana" size="13px" weight="400" font-style="" opacity="1" y="13.875" transform="rotate(0)"><tspan id="SvgjsTspan1170" dy="16" x="67.5"><tspan id="SvgjsTspan1171" style="text-decoration:;">fscache</tspan></tspan></text></g></g><g id="SvgjsG1172"><path id="SvgjsPath1173" d="M537.3048484802247 530.361624308995L558.0165354047504 530.361624308995L558.0165354047504 530.3616243089949L578.728222329276 530.3616243089949" stroke="#323232" stroke-width="2" fill="none" marker-start="url(#SvgjsMarker1174)" marker-end="url(#SvgjsMarker1176)"></path></g><g id="SvgjsG1178" transform="translate(398.70484848022465,608.7187671661384)"><path id="SvgjsPath1179" d="M 0 4Q 0 0 4 0L 131 0Q 135 0 135 4L 135 45Q 135 49 131 49L 4 49Q 0 49 0 45Z" stroke="rgba(50,50,50,1)" stroke-width="2" fill-opacity="1" fill="#ffffff"></path><g id="SvgjsG1180"><text id="SvgjsText1181" font-family="Verdana" text-anchor="middle" font-size="13px" width="115px" fill="#323232" font-weight="700" align="middle" lineHeight="125%" anchor="middle" family="Verdana" size="13px" weight="700" font-style="" opacity="1" y="13.875" transform="rotate(0)"><tspan id="SvgjsTspan1182" dy="16" x="67.5"><tspan id="SvgjsTspan1183" style="text-decoration:;">erofs</tspan></tspan></text></g></g><g id="SvgjsG1184" transform="translate(296.10095792497896,570.7496182577954)"><path id="SvgjsPath1185" d="M 0 4Q 0 0 4 0L 118 0Q 122 0 122 4L 122 45Q 122 49 118 49L 4 49Q 0 49 0 45Z" stroke="rgba(50,50,50,1)" stroke-width="2" fill-opacity="1" fill="#ffffff"></path><g id="SvgjsG1186"><text id="SvgjsText1187" font-family="Verdana" text-anchor="middle" font-size="13px" width="102px" fill="#323232" font-weight="400" align="middle" lineHeight="125%" anchor="middle" family="Verdana" size="13px" weight="400" font-style="" opacity="1" y="5.375" transform="rotate(0)"><tspan id="SvgjsTspan1188" dy="16" x="61"><tspan id="SvgjsTspan1189" style="text-decoration:;">overlayfs </tspan></tspan><tspan id="SvgjsTspan1190" dy="16" x="61"><tspan id="SvgjsTspan1191" style="text-decoration:;">stacked</tspan></tspan></text></g></g><g id="SvgjsG1192"><path id="SvgjsPath1193" d="M537.3048484802247 633.2187671661384L649.8282223292761 633.2187671661384L649.8282223292761 558.4616243089949" stroke="#323232" stroke-width="2" fill="none" marker-start="url(#SvgjsMarker1194)" marker-end="url(#SvgjsMarker1196)"></path></g></svg>