<svg id="SvgjsSvg1006" width="1138.54541015625" height="704.6746826171875" xmlns="http://www.w3.org/2000/svg" version="1.1" xmlns:xlink="http://www.w3.org/1999/xlink" xmlns:svgjs="http://svgjs.com/svgjs"><defs id="SvgjsDefs1007"><marker id="SvgjsMarker1042" markerWidth="16" markerHeight="12" refX="11" refY="6" viewBox="0 0 16 12" orient="auto" markerUnits="userSpaceOnUse" stroke-dasharray="0,0"><path id="SvgjsPath1043" d="M0,0 L16,6 L0,12 L0,0" fill="#323232" stroke="#323232" stroke-width="1"></path></marker><marker id="SvgjsMarker1052" markerWidth="14" markerHeight="10" refX="10" refY="5" viewBox="0 0 14 10" orient="auto" markerUnits="userSpaceOnUse" stroke-dasharray="0,0"><path id="SvgjsPath1053" d="M0,0 L14,5 L0,10 L0,0" fill="#323232" stroke="#323232" stroke-width="1"></path></marker><marker id="SvgjsMarker1096" markerWidth="16" markerHeight="12" refX="11" refY="6" viewBox="0 0 16 12" orient="auto" markerUnits="userSpaceOnUse" stroke-dasharray="0,0"><path id="SvgjsPath1097" d="M0,0 L16,6 L0,12 L0,0" fill="#323232" stroke="#323232" stroke-width="1"></path></marker><marker id="SvgjsMarker1100" markerWidth="16" markerHeight="12" refX="11" refY="6" viewBox="0 0 16 12" orient="auto" markerUnits="userSpaceOnUse" stroke-dasharray="0,0"><path id="SvgjsPath1101" d="M0,0 L16,6 L0,12 L0,0" fill="#323232" stroke="#323232" stroke-width="1"></path></marker><marker id="SvgjsMarker1104" markerWidth="16" markerHeight="16" refX="11" refY="8" viewBox="0 0 16 16" orient="auto" markerUnits="userSpaceOnUse" stroke-dasharray="0,0"><path id="SvgjsPath1105" d="M0,0 L10,8 L0,16" fill="none" stroke="#323232" stroke-width="2"></path></marker><marker id="SvgjsMarker1116" markerWidth="16" markerHeight="12" refX="11" refY="6" viewBox="0 0 16 12" orient="auto" markerUnits="userSpaceOnUse" stroke-dasharray="0,0"><path id="SvgjsPath1117" d="M0,0 L16,6 L0,12 L0,0" fill="#323232" stroke="#323232" stroke-width="1"></path></marker><marker id="SvgjsMarker1120" markerWidth="16" markerHeight="20" refX="0" refY="10" viewBox="0 0 16 20" orient="auto" markerUnits="userSpaceOnUse" stroke-dasharray="0,0"><path id="SvgjsPath1121" d="M15,1 L1,10 L15,19" fill="none" stroke="#323232" stroke-width="2"></path></marker><marker id="SvgjsMarker1122" markerWidth="16" markerHeight="16" refX="11" refY="8" viewBox="0 0 16 16" orient="auto" markerUnits="userSpaceOnUse" stroke-dasharray="0,0"><path id="SvgjsPath1123" d="M0,0 L10,8 L0,16" fill="none" stroke="#323232" stroke-width="2"></path></marker><marker id="SvgjsMarker1138" markerWidth="14" markerHeight="10" refX="10" refY="5" viewBox="0 0 14 10" orient="auto" markerUnits="userSpaceOnUse" stroke-dasharray="0,0"><path id="SvgjsPath1139" d="M0,0 L14,5 L0,10 L0,0" fill="#323232" stroke="#323232" stroke-width="1"></path></marker><marker id="SvgjsMarker1142" markerWidth="16" markerHeight="16" refX="11" refY="8" viewBox="0 0 16 16" orient="auto" markerUnits="userSpaceOnUse" stroke-dasharray="0,0"><path id="SvgjsPath1143" d="M0,0 L10,8 L0,16" fill="none" stroke="#323232" stroke-width="2"></path></marker><marker id="SvgjsMarker1176" markerWidth="14" markerHeight="10" refX="10" refY="5" viewBox="0 0 14 10" orient="auto" markerUnits="userSpaceOnUse" stroke-dasharray="0,0"><path id="SvgjsPath1177" d="M0,0 L14,5 L0,10 L0,0" fill="#323232" stroke="#323232" stroke-width="1"></path></marker></defs><g id="SvgjsG1008" transform="translate(582.3324203491211,227.07386779785156)"><path id="SvgjsPath1009" d="M 0 4Q 0 0 4 0L 102.18182373046875 0Q 106.18182373046875 0 106.18182373046875 4L 106.18182373046875 48Q 106.18182373046875 52 102.18182373046875 52L 4 52Q 0 52 0 48Z" stroke="none" fill-opacity="1" fill="#2196f3"></path><g id="SvgjsG1010"><text id="SvgjsText1011" font-family="Verdana" text-anchor="middle" font-size="13px" width="87px" fill="#ffffff" font-weight="400" align="middle" lineHeight="125%" anchor="middle" family="Verdana" size="13px" weight="400" font-style="" opacity="1" y="6.875" transform="rotate(0)"><tspan id="SvgjsTspan1012" dy="16" x="53.5"><tspan id="SvgjsTspan1013" style="text-decoration:;">snapshotter</tspan></tspan><tspan id="SvgjsTspan1014" dy="16" x="53.5"><tspan id="SvgjsTspan1015" style="text-decoration:;">plugin</tspan></tspan></text></g></g><g id="SvgjsG1016" transform="translate(495.51424407958984,410.35797119140625)"><path id="SvgjsPath1017" d="M 0 4Q 0 0 4 0L 130 0Q 134 0 134 4L 134 51Q 134 55 130 55L 4 55Q 0 55 0 51Z" stroke="rgba(255,255,255,1)" stroke-width="4" fill-opacity="1" fill="#1976d2"></path><g id="SvgjsG1018"><text id="SvgjsText1019" font-family="Verdana" text-anchor="middle" font-size="16px" width="114px" fill="#ffcdd2" font-weight="700" align="middle" lineHeight="125%" anchor="middle" family="Verdana" size="16px" weight="700" font-style="" opacity="1" y="13.5" transform="rotate(0)"><tspan id="SvgjsTspan1020" dy="20" x="67"><tspan id="SvgjsTspan1021" style="text-decoration:;">nydusd</tspan></tspan></text></g></g><g id="SvgjsG1022" transform="translate(864.3778762817383,223.16477584838867)"><path id="SvgjsPath1023" d="M 0 4Q 0 0 4 0L 117.27273559570312 0Q 121.27273559570312 0 121.27273559570312 4L 121.27273559570312 55.81818389892578Q 121.27273559570312 59.81818389892578 117.27273559570312 59.81818389892578L 4 59.81818389892578Q 0 59.81818389892578 0 55.81818389892578Z" stroke="none" fill-opacity="1" fill="#81c784"></path><g id="SvgjsG1024"><text id="SvgjsText1025" font-family="Verdana" text-anchor="middle" font-size="14px" width="102px" fill="#7b1fa2" font-weight="700" align="middle" lineHeight="125%" anchor="middle" family="Verdana" size="14px" weight="700" font-style="" opacity="1" y="18.15909194946289" transform="rotate(0)"><tspan id="SvgjsTspan1026" dy="17" x="61"><tspan id="SvgjsTspan1027" style="text-decoration:;">containerd</tspan></tspan></text></g></g><g id="SvgjsG1028" transform="translate(162.60515594482422,423.13069915771484)"><path id="SvgjsPath1029" d="M 0 0L 115 0L 115 42.227272033691406L 0 42.227272033691406Z" stroke="rgba(50,50,50,1)" stroke-width="2" fill-opacity="1" fill="#ffffff"></path><g id="SvgjsG1030"><text id="SvgjsText1031" font-family="Verdana" text-anchor="middle" font-size="15px" width="95px" fill="#323232" font-weight="400" align="middle" lineHeight="125%" anchor="middle" family="Verdana" size="15px" weight="400" font-style="italic" opacity="1" y="8.738636016845703" transform="rotate(0)"><tspan id="SvgjsTspan1032" dy="18" x="57.5"><tspan id="SvgjsTspan1033" style="text-decoration:;">container</tspan></tspan></text></g></g><g id="SvgjsG1034" transform="translate(414.42333221435547,630.676155090332)"><path id="SvgjsPath1035" d="M 0 4Q 0 0 4 0L 131 0Q 135 0 135 4L 135 45Q 135 49 131 49L 4 49Q 0 49 0 45Z" stroke="rgba(50,50,50,1)" stroke-width="2" fill-opacity="1" fill="#ffffff"></path><g id="SvgjsG1036"><text id="SvgjsText1037" font-family="Verdana" text-anchor="middle" font-size="13px" width="115px" fill="#323232" font-weight="400" align="middle" lineHeight="125%" anchor="middle" family="Verdana" size="13px" weight="400" font-style="" opacity="1" y="13.875" transform="rotate(0)"><tspan id="SvgjsTspan1038" dy="16" x="67.5"><tspan id="SvgjsTspan1039" style="text-decoration:;">fuse</tspan></tspan></text></g></g><g id="SvgjsG1040"><path id="SvgjsPath1041" d="M637.0195243621654 84.9052311659342C 543.9483276367188 199.71478271484375 555.1483276367187 279.71478271484375 562.1734097750594 404.4678241663435" stroke="#323232" stroke-width="3" fill="none" marker-end="url(#SvgjsMarker1042)"></path></g><g id="SvgjsG1044" transform="translate(608.3778762817383,25.005695343017578)"><path id="SvgjsPath1045" d="M 18.48 45.97727127075195C -15.4 32.84090805053711 6.16 22.988635635375974 13.86 19.704544830322266C 10.780000000000001 3.284090805053711 49.28 0 64.67999999999999 6.568181610107422C 77 -3.284090805053711 115.5 0 115.5 9.852272415161133C 146.29999999999998 6.568181610107422 158.62 19.704544830322266 146.29999999999998 36.124998855590825C 157.08 49.261362075805664 146.29999999999998 65.68181610107422 110.88 59.113634490966795C 103.18 67.65227058410645 72.38 67.65227058410645 64.67999999999999 59.113634490966795C 49.28 65.68181610107422 18.48 62.3977252960205 18.48 45.97727127075195Z" stroke="rgba(50,50,50,1)" stroke-width="2" fill-opacity="1" fill="#ffffff"></path><g id="SvgjsG1046"><text id="SvgjsText1047" font-family="Verdana" text-anchor="middle" font-size="13px" width="134px" fill="#323232" font-weight="400" align="middle" lineHeight="125%" anchor="middle" family="Verdana" size="13px" weight="400" font-style="" opacity="1" y="22.21590805053711" transform="rotate(0)"><tspan id="SvgjsTspan1048" dy="16" x="77"><tspan id="SvgjsTspan1049" style="text-decoration:;">Registry</tspan></tspan></text></g></g><g id="SvgjsG1050"><path id="SvgjsPath1051" d="M696.3444452002695 91.66995331954197C 705.3766610153244 196.05870311687892 925.0142440795898 117.39108334166258 924.7579937243697 220.57743440291813" stroke="#323232" stroke-width="2" fill="none" marker-end="url(#SvgjsMarker1052)"></path></g><g id="SvgjsG1054" transform="translate(675.5142440795898,160.71023559570312)"><path id="SvgjsPath1055" d="M 0 0L 120 0L 120 40L 0 40Z" stroke="none" fill="none"></path><g id="SvgjsG1056"><text id="SvgjsText1057" font-family="Verdana" text-anchor="middle" font-size="13px" width="120px" fill="#323232" font-weight="400" align="middle" lineHeight="125%" anchor="middle" family="Verdana" size="13px" weight="400" font-style="" opacity="1" y="0.875" transform="rotate(0)"><tspan id="SvgjsTspan1058" dy="16" x="60"><tspan id="SvgjsTspan1059" style="text-decoration:;">Pull </tspan></tspan><tspan id="SvgjsTspan1060" dy="16" x="60"><tspan id="SvgjsTspan1061" style="text-decoration:;">Bootstrap/Meta</tspan></tspan></text></g></g><g id="SvgjsG1062" transform="translate(473.09037704467767,153.47386779785148)"><path id="SvgjsPath1063" d="M 0 0L 120 0L 120 40L 0 40Z" stroke="none" fill="none"></path><g id="SvgjsG1064"><text id="SvgjsText1065" font-family="Verdana" text-anchor="middle" font-size="13px" width="120px" fill="#323232" font-weight="400" align="middle" lineHeight="125%" anchor="middle" family="Verdana" size="13px" weight="400" font-style="" opacity="1" y="9.375" transform="rotate(0)"><tspan id="SvgjsTspan1066" dy="16" x="60"><tspan id="SvgjsTspan1067" style="text-decoration:;">Layer Data</tspan></tspan></text></g></g><g id="SvgjsG1068" transform="translate(304.51424407958984,610.0852508544922)"><path id="SvgjsPath1069" d="M 0 4Q 0 0 4 0L 118 0Q 122 0 122 4L 122 45Q 122 49 118 49L 4 49Q 0 49 0 45Z" stroke="rgba(50,50,50,1)" stroke-width="2" fill-opacity="1" fill="#ffffff"></path><g id="SvgjsG1070"><text id="SvgjsText1071" font-family="Verdana" text-anchor="middle" font-size="13px" width="102px" fill="#323232" font-weight="400" align="middle" lineHeight="125%" anchor="middle" family="Verdana" size="13px" weight="400" font-style="" opacity="1" y="5.375" transform="rotate(0)"><tspan id="SvgjsTspan1072" dy="16" x="61"><tspan id="SvgjsTspan1073" style="text-decoration:;">overlayfs </tspan></tspan><tspan id="SvgjsTspan1074" dy="16" x="61"><tspan id="SvgjsTspan1075" style="text-decoration:;">stacked</tspan></tspan></text></g></g><g id="SvgjsG1076" transform="translate(42.60515594482422,521.0852432250977)"><path id="SvgjsPath1077" d="M 0 0L 159.62500762939453 0L 159.62500762939453 33.272735595703125L 0 33.272735595703125Z" stroke="none" fill="none"></path><g id="SvgjsG1078"><text id="SvgjsText1079" font-family="Verdana" text-anchor="middle" font-size="12px" width="160px" fill="#323232" font-weight="400" align="middle" lineHeight="125%" anchor="middle" family="Verdana" size="12px" weight="400" font-style="" opacity="1" y="6.6363677978515625" transform="rotate(0)"><tspan id="SvgjsTspan1080" dy="15" x="80"><tspan id="SvgjsTspan1081" style="text-decoration:;">Posix File Interfaces</tspan></tspan></text></g></g><g id="SvgjsG1082" transform="translate(325.15059661865234,423.13069915771484)"><path id="SvgjsPath1083" d="M 0 0L 115 0L 115 42.227272033691406L 0 42.227272033691406Z" stroke="rgba(50,50,50,1)" stroke-width="2" fill-opacity="1" fill="#ffffff"></path><g id="SvgjsG1084"><text id="SvgjsText1085" font-family="Verdana" text-anchor="middle" font-size="15px" width="95px" fill="#323232" font-weight="400" align="middle" lineHeight="125%" anchor="middle" family="Verdana" size="15px" weight="400" font-style="italic" opacity="1" y="8.738636016845703" transform="rotate(0)"><tspan id="SvgjsTspan1086" dy="18" x="57.5"><tspan id="SvgjsTspan1087" style="text-decoration:;">container</tspan></tspan></text></g></g><g id="SvgjsG1088" transform="translate(25.00515594482414,561.2852508544922)"><path id="SvgjsPath1089" d="M 0 0L 120 0L 120 40L 0 40Z" stroke="none" fill="none"></path><g id="SvgjsG1090"><text id="SvgjsText1091" font-family="Verdana" text-anchor="middle" font-size="13px" width="120px" fill="#323232" font-weight="400" align="middle" lineHeight="125%" anchor="middle" family="Verdana" size="13px" weight="400" font-style="" opacity="1" y="9.375" transform="rotate(0)"><tspan id="SvgjsTspan1092" dy="16" x="60"><tspan id="SvgjsTspan1093" style="text-decoration:;">Kernel</tspan></tspan></text></g></g><g id="SvgjsG1094"><path id="SvgjsPath1095" d="M303.51750727215097 634.5045307411586C 228.87005980409015 634.5852508544922 220.10515594482422 541.002155466906 220.1457046186086 470.25780341353936" stroke="#323232" stroke-width="3" fill="none" marker-end="url(#SvgjsMarker1096)"></path></g><g id="SvgjsG1098"><path id="SvgjsPath1099" d="M365.53807255636343 609.0855347929554C 365.51424407958984 551.7899473633599 382.65059661865234 523.6532746825385 382.5338370824617 470.25657989293654" stroke="#323232" stroke-width="3" fill="none" marker-end="url(#SvgjsMarker1100)"></path></g><g id="SvgjsG1102"><path id="SvgjsPath1103" d="M635.4233322143555 279.07386779785156L601.7249828627736 408.4434763769861" stroke-dasharray="3,3" stroke="#323232" stroke-width="2" fill="none" marker-end="url(#SvgjsMarker1104)"></path></g><g id="SvgjsG1106" transform="translate(561.4233322143555,465.35797119140625)"><path id="SvgjsPath1107" d="M 0 0L 120 0L 120 40L 0 40Z" stroke="none" fill="none"></path><g id="SvgjsG1108"><text id="SvgjsText1109" font-family="微软雅黑" text-anchor="middle" font-size="13px" width="120px" fill="#323232" font-weight="400" align="middle" lineHeight="125%" anchor="middle" family="微软雅黑" size="13px" weight="400" font-style="" opacity="1" y="9.375" transform="rotate(0)"><tspan id="SvgjsTspan1110" dy="16" x="60"><tspan id="SvgjsTspan1111" style="text-decoration:;">FUSE daemon</tspan></tspan></text></g></g><g id="SvgjsG1112"><path id="SvgjsPath1113" d="M37.312538146972656 560.2272872924805L541.8125381469727 560.2272872924805L541.8125381469727 560.2272872924805L1046.3125381469727 560.2272872924805" stroke="#323232" stroke-width="2" fill="none"></path></g><g id="SvgjsG1114"><path id="SvgjsPath1115" d="M562.3711342746017 467.35284451663676C 562.5142440795898 538.9242645632042 481.92333221435547 557.109861718534 482.2739512365763 625.7887154435173" stroke="#323232" stroke-width="3" fill="none" marker-end="url(#SvgjsMarker1116)"></path></g><g id="SvgjsG1118"><path id="SvgjsPath1119" d="M689.5142440795898 253.07386779785156L863.3778762817383 253.07386779785156" stroke-dasharray="3,3" stroke="#323232" stroke-width="2" fill="none" marker-start="url(#SvgjsMarker1120)" marker-end="url(#SvgjsMarker1122)"></path></g><g id="SvgjsG1124" transform="translate(675.5142440795898,384.85797119140625)"><path id="SvgjsPath1125" d="M 0 4Q 0 0 4 0L 130 0Q 134 0 134 4L 134 51Q 134 55 130 55L 4 55Q 0 55 0 51Z" stroke-dasharray="10,6" stroke="rgba(255,255,255,1)" stroke-width="4" fill-opacity="1" fill="#64b5f6"></path><g id="SvgjsG1126"><text id="SvgjsText1127" font-family="Verdana" text-anchor="middle" font-size="16px" width="114px" fill="#ffcdd2" font-weight="700" align="middle" lineHeight="125%" anchor="middle" family="Verdana" size="16px" weight="700" font-style="" opacity="1" y="13.5" transform="rotate(0)"><tspan id="SvgjsTspan1128" dy="20" x="67"><tspan id="SvgjsTspan1129" style="text-decoration:;">nydusd</tspan></tspan></text></g></g><g id="SvgjsG1130" transform="translate(675.5142440795898,450.35797119140625)"><path id="SvgjsPath1131" d="M 0 4Q 0 0 4 0L 130 0Q 134 0 134 4L 134 51Q 134 55 130 55L 4 55Q 0 55 0 51Z" stroke-dasharray="10,6" stroke="rgba(255,255,255,1)" stroke-width="4" fill-opacity="1" fill="#64b5f6"></path><g id="SvgjsG1132"><text id="SvgjsText1133" font-family="Verdana" text-anchor="middle" font-size="16px" width="114px" fill="#ffcdd2" font-weight="700" align="middle" lineHeight="125%" anchor="middle" family="Verdana" size="16px" weight="700" font-style="" opacity="1" y="13.5" transform="rotate(0)"><tspan id="SvgjsTspan1134" dy="20" x="67"><tspan id="SvgjsTspan1135" style="text-decoration:;">nydusd</tspan></tspan></text></g></g><g id="SvgjsG1136"><path id="SvgjsPath1137" d="M742.4179005910473 507.35564932669615C 742.5142440795898 603.1165214848471 647.1818825077963 655.176155090332 553.0221022276485 655.0820573144659" stroke="#323232" stroke-width="2" fill="none" marker-end="url(#SvgjsMarker1138)"></path></g><g id="SvgjsG1140"><path id="SvgjsPath1141" d="M635.4233322143555 279.07386779785156L740.379941477592 382.74971304708305" stroke-dasharray="3,3" stroke="#323232" stroke-width="2" fill="none" marker-end="url(#SvgjsMarker1142)"></path></g><g id="SvgjsG1144" transform="translate(700.3125381469727,218.3466033935547)"><path id="SvgjsPath1145" d="M 0 0L 120 0L 120 40L 0 40Z" stroke="none" fill="none"></path><g id="SvgjsG1146"><text id="SvgjsText1147" font-family="微软雅黑" text-anchor="middle" font-size="13px" width="120px" fill="#323232" font-weight="400" align="middle" lineHeight="125%" anchor="middle" family="微软雅黑" size="13px" weight="400" font-style="" opacity="1" y="9.375" transform="rotate(0)"><tspan id="SvgjsTspan1148" dy="16" x="60"><tspan id="SvgjsTspan1149" style="text-decoration:;">Annotations</tspan></tspan></text></g></g><g id="SvgjsG1150" transform="translate(700.3125381469727,275.5284194946289)"><path id="SvgjsPath1151" d="M 0 0L 120 0L 120 40L 0 40Z" stroke="none" fill="none"></path><g id="SvgjsG1152"><text id="SvgjsText1153" font-family="微软雅黑" text-anchor="middle" font-size="13px" width="120px" fill="#323232" font-weight="400" align="middle" lineHeight="125%" anchor="middle" family="微软雅黑" size="13px" weight="400" font-style="" opacity="1" y="9.375" transform="rotate(0)"><tspan id="SvgjsTspan1154" dy="16" x="60"><tspan id="SvgjsTspan1155" style="text-decoration:;">Mount Slice</tspan></tspan></text></g></g><g id="SvgjsG1156" transform="translate(703.3125381469727,251.07386779785156)"><path id="SvgjsPath1157" d="M 0 0L 120 0L 120 40L 0 40Z" stroke="none" fill="none"></path><g id="SvgjsG1158"><text id="SvgjsText1159" font-family="微软雅黑" text-anchor="middle" font-size="13px" width="120px" fill="#323232" font-weight="400" align="middle" lineHeight="125%" anchor="middle" family="微软雅黑" size="13px" weight="400" font-style="" opacity="1" y="9.375" transform="rotate(0)"><tspan id="SvgjsTspan1160" dy="16" x="60"><tspan id="SvgjsTspan1161" style="text-decoration:;">Snapshot IDs</tspan></tspan></text></g></g><g id="SvgjsG1162" transform="translate(138.60515594482422,391.24433517456055)"><path id="SvgjsPath1163" d="M 0 0L 115 0L 115 42.227272033691406L 0 42.227272033691406Z" stroke="rgba(50,50,50,1)" stroke-width="2" fill-opacity="1" fill="#ffffff"></path><g id="SvgjsG1164"><text id="SvgjsText1165" font-family="Verdana" text-anchor="middle" font-size="15px" width="95px" fill="#323232" font-weight="400" align="middle" lineHeight="125%" anchor="middle" family="Verdana" size="15px" weight="400" font-style="italic" opacity="1" y="8.738636016845703" transform="rotate(0)"><tspan id="SvgjsTspan1166" dy="18" x="57.5"><tspan id="SvgjsTspan1167" style="text-decoration:;">container</tspan></tspan></text></g></g><g id="SvgjsG1168" transform="translate(253.605155944824,144.21023559570312)"><path id="SvgjsPath1169" d="M 24.84 51.099999999999994C -20.700000000000003 36.5 8.28 25.549999999999997 18.63 21.9C 14.490000000000002 3.6500000000000004 66.24 0 86.94 7.300000000000001C 103.5 -3.6500000000000004 155.25 0 155.25 10.95C 196.64999999999998 7.300000000000001 213.21 21.9 196.64999999999998 40.150000000000006C 211.14000000000001 54.75 196.64999999999998 73 149.04 65.7C 138.69 75.19 97.28999999999999 75.19 86.94 65.7C 66.24 73 24.84 69.35 24.84 51.099999999999994Z" stroke="rgba(50,50,50,1)" stroke-width="2" fill-opacity="1" fill="#ffffff"></path><g id="SvgjsG1170"><text id="SvgjsText1171" font-family="Verdana" text-anchor="middle" font-size="13px" width="187px" fill="#323232" font-weight="400" align="middle" lineHeight="125%" anchor="middle" family="Verdana" size="13px" weight="400" font-style="" opacity="1" y="25.875" transform="rotate(0)"><tspan id="SvgjsTspan1172" dy="16" x="103.5"><tspan id="SvgjsTspan1173" style="text-decoration:;">P2P cluster</tspan></tspan></text></g></g><g id="SvgjsG1174"><path id="SvgjsPath1175" d="M371.75715311365764 218.19702681844979C 381.0630874468794 325.42918786315806 562.5142440795898 301.7256401071784 562.1672966269689 405.77107382334583" stroke="#323232" stroke-width="2" fill="none" marker-end="url(#SvgjsMarker1176)"></path></g><g id="SvgjsG1178" transform="translate(543.5142440795903,334.71591949462896)"><path id="SvgjsPath1179" d="M 0 0L 75.15226593017587 0L 75.15226593017587 20L 0 20Z" stroke="none" fill="none"></path><g id="SvgjsG1180"><text id="SvgjsText1181" font-family="微软雅黑" text-anchor="middle" font-size="13px" width="76px" fill="#323232" font-weight="400" align="middle" lineHeight="125%" anchor="middle" family="微软雅黑" size="13px" weight="400" font-style="" opacity="1" y="-0.625" transform="rotate(0)"><tspan id="SvgjsTspan1182" dy="16" x="38"><tspan id="SvgjsTspan1183" style="text-decoration:;">auth</tspan></tspan></text></g></g><g id="SvgjsG1184" transform="translate(1004.5483276367188,230.61931610107422)"><path id="SvgjsPath1185" d="M 0 22.454551696777344L 22.454551696777344 0L 22.454551696777344 14.820004119873047L 109 14.820004119873047L 109 30.089099273681644L 22.454551696777344 30.089099273681644L 22.454551696777344 44.90910339355469L 0 22.454551696777344Z" stroke="rgba(50,50,50,1)" stroke-width="2" fill-opacity="1" fill="#ffffff"></path><g id="SvgjsG1186"><text id="SvgjsText1187" font-family="微软雅黑" text-anchor="middle" font-size="13px" width="109px" fill="#323232" font-weight="700" align="middle" lineHeight="125%" anchor="middle" family="微软雅黑" size="13px" weight="700" font-style="" opacity="1" y="11.829551696777344" transform="rotate(0)"><tspan id="SvgjsTspan1188" dy="16" x="54.5"><tspan id="SvgjsTspan1189" style="text-decoration:;">CRI</tspan></tspan></text></g></g></svg>